<svg width="18" height="18" viewBox="0 0 18 18" fill="none" xmlns="http://www.w3.org/2000/svg">
<path d="M9.00066 0C6.55638 0 6.24963 0.0106877 5.28962 0.0543752C4.33148 0.0982502 3.67748 0.249938 3.10522 0.4725C2.51328 0.702375 2.01115 1.00988 1.51089 1.51031C1.01026 2.01056 0.702757 2.51269 0.47213 3.10444C0.249003 3.67687 0.097126 4.33106 0.0540006 5.28881C0.0112501 6.24881 0 6.55575 0 9C0 11.4443 0.0108753 11.7501 0.0543757 12.7101C0.0984387 13.6682 0.250128 14.3222 0.472505 14.8944C0.70257 15.4864 1.01007 15.9885 1.51052 16.4888C2.01058 16.9894 2.51271 17.2976 3.10428 17.5275C3.67691 17.7501 4.33111 17.9018 5.28906 17.9456C6.24907 17.9893 6.55563 18 8.99972 18C11.4442 18 11.75 17.9893 12.71 17.9456C13.6681 17.9018 14.3229 17.7501 14.8955 17.5275C15.4873 17.2976 15.9887 16.9894 16.4887 16.4888C16.9894 15.9885 17.2969 15.4864 17.5275 14.8946C17.7487 14.3222 17.9006 13.668 17.9456 12.7103C17.9888 11.7502 18 11.4443 18 9C18 6.55575 17.9888 6.249 17.9456 5.289C17.9006 4.33087 17.7487 3.67687 17.5275 3.10462C17.2969 2.51269 16.9894 2.01056 16.4887 1.51031C15.9881 1.00969 15.4875 0.702188 14.895 0.4725C14.3212 0.249938 13.6668 0.0982502 12.7087 0.0543752C11.7487 0.0106877 11.4431 0 8.99803 0H9.00066ZM8.19327 1.62187C8.4329 1.6215 8.70028 1.62187 9.00066 1.62187C11.4037 1.62187 11.6885 1.6305 12.6374 1.67363C13.515 1.71375 13.9912 1.86038 14.3085 1.98356C14.7285 2.14669 15.0279 2.34169 15.3427 2.65669C15.6577 2.97169 15.8527 3.27169 16.0162 3.69169C16.1394 4.00856 16.2862 4.48481 16.3262 5.36231C16.3693 6.31106 16.3787 6.59606 16.3787 8.99794C16.3787 11.3998 16.3693 11.6848 16.3262 12.6336C16.286 13.5111 16.1394 13.9873 16.0162 14.3042C15.8531 14.7242 15.6577 15.0233 15.3427 15.3381C15.0277 15.6531 14.7287 15.8481 14.3085 16.0112C13.9916 16.1349 13.515 16.2812 12.6374 16.3213C11.6887 16.3644 11.4037 16.3738 9.00066 16.3738C6.59744 16.3738 6.31263 16.3644 5.36387 16.3213C4.48636 16.2808 4.0101 16.1342 3.69266 16.011C3.27266 15.8479 2.97266 15.6529 2.65765 15.3379C2.34265 15.0229 2.14765 14.7236 1.98415 14.3034C1.86096 13.9866 1.71414 13.5103 1.67421 12.6328C1.63108 11.6841 1.62245 11.3991 1.62245 8.99569C1.62245 6.59231 1.63108 6.30881 1.67421 5.36006C1.71433 4.48256 1.86096 4.00631 1.98415 3.68906C2.14727 3.26906 2.34265 2.96906 2.65765 2.65406C2.97266 2.33906 3.27266 2.14406 3.69266 1.98056C4.00992 1.85681 4.48636 1.71056 5.36387 1.67025C6.19413 1.63275 6.51588 1.6215 8.19327 1.61963V1.62187Z" fill="black"/>
<path d="M13.7855 3.09414C13.5719 3.09414 13.363 3.15749 13.1854 3.27618C13.0078 3.39487 12.8694 3.56356 12.7876 3.76093C12.7059 3.9583 12.6845 4.17547 12.7262 4.38498C12.768 4.59449 12.8708 4.78692 13.0219 4.93795C13.173 5.08898 13.3655 5.19181 13.575 5.23344C13.7845 5.27507 14.0017 5.25362 14.199 5.17182C14.3964 5.09002 14.565 4.95154 14.6837 4.77389C14.8023 4.59623 14.8656 4.38739 14.8655 4.17377C14.8655 3.57752 14.3817 3.09414 13.7855 3.09414Z" fill="black"/>
<path fill-rule="evenodd" clip-rule="evenodd" d="M8.9813 4.35602C6.42884 4.35602 4.35938 6.42545 4.35938 8.97789C4.35938 11.5303 6.42884 13.5988 8.9813 13.5988C11.5338 13.5988 13.6027 11.5303 13.6027 8.97789C13.6027 6.42545 11.5338 4.35602 8.9813 4.35602ZM9 11.9531C10.631 11.9531 11.9531 10.631 11.9531 9.00002C11.9531 7.36905 10.631 6.04689 9 6.04689C7.36904 6.04689 6.04688 7.36905 6.04688 9.00002C6.04688 10.631 7.36904 11.9531 9 11.9531Z" fill="black"/>
</svg>
